<?xml version="1.0" encoding="UTF-8"?>
<svg width="950px" height="43px" viewBox="0 0 950 43" version="1.1" xmlns="http://www.w3.org/2000/svg" xmlns:xlink="http://www.w3.org/1999/xlink">
    <!-- Generator: Sketch 51.3 (57544) - http://www.bohemiancoding.com/sketch -->
    <title>logobar-xl</title>
    <desc>Created with Sketch.</desc>
    <defs/>
    <g id="Symbols" stroke="none" stroke-width="1" fill="none" fill-rule="evenodd">
        <g id="Logobar/Standard/XL" transform="translate(-921.000000, -36.000000)">
            <g id="content">
                <g transform="translate(730.000000, 36.000000)">
                    <g id="logobar-xl" transform="translate(191.000000, 0.000000)">
                        <path d="M64.9805473,29.4053396 C66.5790694,29.4053396 67.7419403,28.733489 68.4396629,28.0314688 L70.1539048,29.9240222 C69.0205311,31.1145555 67.4515062,31.9999131 65.00891,31.9999131 C60.8248436,31.9999131 58.1213105,29.1616632 58.1213105,25.3162175 C58.1213105,21.5009413 60.9700607,18.632522 64.6299842,18.632522 C68.7868224,18.632522 71.1420615,21.8664559 70.9389845,26.3535828 L61.1152777,26.3535828 C61.4624373,28.2159667 62.741028,29.4053396 64.9805473,29.4053396 Z M67.9745145,24.217353 C67.7113086,22.4779676 66.6959237,21.196926 64.660616,21.196926 C62.7716598,21.196926 61.4624373,22.2946302 61.1152777,24.217353 L67.9745145,24.217353 Z M-1.42108547e-14,29.2658639 L7.56149736,21.4102009 L0.176983284,21.4102009 L0.176983284,18.9455881 L11.0648588,18.9455881 L11.0648588,21.4612569 L3.50336142,29.3169199 L11.16583,29.3169199 L11.16583,31.7815326 L-1.42108547e-14,31.7815326 L-1.42108547e-14,29.2658639 Z M20.1308275,29.4053396 C21.7293496,29.4053396 22.8933551,28.733489 23.5899431,28.0314688 L25.3053196,29.9240222 C24.1719458,31.1145555 22.6017864,31.9999131 20.1603247,31.9999131 C15.9751239,31.9999131 13.2715907,29.1616632 13.2715907,25.3162175 C13.2715907,21.5009413 16.1203409,18.632522 19.781399,18.632522 C23.9382371,18.632522 26.2934762,21.8664559 26.0892647,26.3535828 L16.265558,26.3535828 C16.613852,28.2159667 17.8924428,29.4053396 20.1308275,29.4053396 Z M23.1259292,24.217353 C22.8627233,22.4779676 21.8473385,21.196926 19.8108962,21.196926 C17.92194,21.196926 16.613852,22.2946302 16.265558,24.217353 L23.1259292,24.217353 Z M42.4143844,25.324224 C42.4143844,21.2165361 45.4140242,18.648651 48.7165776,18.648651 C50.3797667,18.648651 51.9669437,19.3936046 52.8995095,20.574855 L52.8995095,13 L55.5735454,13 L55.5735454,31.7433566 L52.8995095,31.7433566 L52.8995095,29.9714811 C51.9419845,31.2293155 50.353673,31.999797 48.6893494,31.999797 C45.4889017,31.999797 42.4143844,29.4063839 42.4143844,25.324224 Z M53.0515336,25.298696 C53.0515336,23.0139397 51.3633853,21.1387918 49.0682752,21.1387918 C46.8264869,21.1387918 45.0861513,22.9617233 45.0861513,25.298696 C45.0861513,27.6345084 46.8264869,29.4829679 49.0682752,29.4829679 C51.3633853,29.4829679 53.0515336,27.6089804 53.0515336,25.298696 Z M72.4988199,29.0211431 L74.9175914,27.7377808 C75.5994309,28.9178708 76.7078454,29.6117683 78.1452673,29.6117683 C79.6587013,29.6117683 80.4381085,28.8169191 80.4381085,27.9176372 C80.4381085,26.8907152 78.9768619,26.6586424 77.3896849,26.325618 C75.2454643,25.8626328 73.0286352,25.1443676 73.0286352,22.5010589 C73.0286352,20.4715826 74.9175914,18.597595 77.8934065,18.623123 C80.236166,18.623123 81.9765016,19.573461 82.9601203,21.1132638 L80.7149285,22.3722585 C80.1363293,21.4729765 79.1527107,20.9078794 77.8934065,20.9078794 C76.4559846,20.9078794 75.7264958,21.6273049 75.7264958,22.4488425 C75.7264958,23.3736525 76.8848287,23.6289325 78.7000419,24.0408617 C80.7659814,24.5026865 83.1110099,25.1954237 83.1110099,27.8665811 C83.1110099,29.6372963 81.5987104,32.025325 78.0182024,31.999797 C75.3986229,31.999797 73.5584506,30.9218191 72.4988199,29.0211431 Z M90.0681547,26.0431855 L87.9511623,28.4056862 L87.9511623,31.7428925 L85.2793955,31.7428925 L85.2793955,13.0006962 L87.9511623,13.0006962 L87.9511623,25.2727039 L93.622569,18.9057877 L96.8740696,18.9057877 L91.9582454,24.4001103 L97,31.7428925 L93.9754011,31.7428925 L90.0681547,26.0431855 Z M34.459553,18.6464463 C37.6361761,18.6464463 40.2954634,20.7513463 40.2954634,24.2440414 L40.2954634,31.7423123 L37.5726436,31.7423123 L37.5726436,24.5909901 C37.5726436,22.4860902 36.5629313,21.2259351 34.5469102,21.2259351 C32.5320235,21.2259351 31.3475969,22.4860902 31.3475969,24.5909901 L31.3475969,31.7423123 L28.6247772,31.7423123 L28.6247772,24.2440414 C28.6247772,20.7513463 31.2840645,18.6464463 34.459553,18.6464463 Z" id="logo-zendesk" fill="#A0A0A0" fill-rule="nonzero"/>
                        <path d="M689.876179,11.0719084 C689.770737,12.0385401 689.770737,12.899895 689.674881,13.76125 C689.473584,16.661145 689.166845,19.4557633 688.965548,22.365229 C688.93949,23.896513 688.70077,25.4167827 688.256215,26.8825572 C686.942989,30.4332538 684.517836,32.4717939 680.99034,32.9024713 C679.167014,33.1979761 677.298421,32.8166705 675.737439,31.8305629 C673.71414,30.4522864 672.532871,28.1403283 672.602953,25.6958015 C672.599743,23.9366457 672.702173,22.1788801 672.909692,20.4319656 L673.513583,13.6559733 C673.609439,12.7946183 673.609439,12.0385401 673.714881,11.1771851 L677.750412,11.1771851 C677.654557,11.8279866 677.549115,12.6893416 677.453259,13.4358492 L676.849367,20.2118416 C676.743926,21.3985973 676.638484,22.5757824 676.542629,23.8678149 C676.473927,24.6216111 676.506163,25.3811874 676.638484,26.126479 C677.050665,28.3851431 678.766484,29.0359446 680.57816,28.8158206 C682.907458,28.4904198 684.316539,26.7772805 684.517836,24.1932156 C684.824575,20.9679198 685.131314,17.742624 685.332611,14.4024809 C685.428467,13.3305725 685.533908,12.1438168 685.629764,10.9666317 C687.144287,11.0719084 688.457512,11.0719084 689.876179,11.0719084 Z M741.6,32.4717939 L737.248144,32.4717939 C736.950991,31.3998855 736.644252,30.2131297 736.241657,29.1412213 L728.362306,29.1412213 C727.85427,30.2131297 727.355819,31.2946087 726.847783,32.4717939 L722.601369,32.4717939 C722.802666,31.5051622 733.509766,10.3158302 733.921946,10 C736.442955,17.5225 738.973549,24.9492939 741.6,32.4717939 Z M730.078126,25.3704007 L735.12973,25.3704007 C734.420396,23.0064599 733.816504,20.6425191 733.107171,18.2785782 C732.19654,20.6425191 731.186859,23.0064599 730.078126,25.3704007 Z M708.46263,12.2586641 C708.261332,13.9718034 708.155891,15.5892366 707.954594,17.1970992 C707.697734,17.0105538 707.462974,16.7954257 707.254846,16.5558683 C705.910701,15.2612127 704.059773,14.6300048 702.203242,14.8331584 C697.352936,15.0532824 695.531674,19.0346565 695.531674,22.4705057 C695.533913,23.268232 695.636974,24.0624873 695.838413,24.8344465 C696.36412,26.9237222 698.132654,28.4682953 700.276539,28.7105439 C702.701959,29.0586129 705.146662,28.217666 706.842666,26.4518797 C706.972332,26.3728936 707.078291,26.2604879 707.149404,26.126479 C706.948107,27.9544656 706.842666,29.5718988 706.74681,31.2946087 C705.62592,31.9737585 704.392273,32.4469982 703.104287,32.6919179 C700.971451,33.1723671 698.739794,32.9438369 696.749044,32.0411164 C693.811031,30.7773015 691.797142,28.0143642 691.496143,24.8344465 C690.955892,21.3133725 691.823455,17.7213629 693.91171,14.8331584 C695.612544,12.4308454 698.259413,10.8674892 701.18717,10.5359542 C703.292021,10.1508362 705.465473,10.4917004 707.350702,11.5025859 C707.858738,11.8279866 708.155891,12.0385401 708.46263,12.2586641 Z M722.304216,28.4904198 C722.198774,29.887729 722.102918,31.1797614 721.901621,32.4717939 L709.775855,32.4717939 C710.485188,25.265124 711.08908,18.1733015 711.692972,11.0719084 L715.738089,11.0719084 L714.223567,28.4904198 L722.304216,28.4904198 Z" id="logo-ucla" fill="#A0A0A0" fill-rule="nonzero"/>
                        <path d="M296.510593,31.5038836 L293.794451,27.5099845 L291.042877,31.5038836 L287.358006,31.5038836 L291.926247,25.0011015 L287.630184,18.7702584 L291.518785,18.7702584 L293.963555,22.3890129 L296.442951,18.7702584 L300.127822,18.7702584 L295.781028,24.9150967 L300.4,31.5038836 L296.510593,31.5038836 Z M275.47156,25.171473 C275.47156,21.2455585 278.001688,18.4975004 281.686558,18.4975004 C285.371429,18.4975004 287.884646,21.2283576 287.884646,25.171473 C287.884646,29.0801864 285.354519,31.8110436 281.686558,31.8110436 C278.001688,31.8110436 275.47156,29.0801864 275.47156,25.171473 Z M278.969611,25.171473 C278.969611,27.2708092 279.937533,28.8246293 281.686558,28.8246293 C283.435584,28.8246293 284.403506,27.2880102 284.403506,25.171473 C284.403506,23.0377348 283.435584,21.5019348 281.686558,21.5019348 C279.920623,21.5019348 278.969611,23.0377348 278.969611,25.171473 Z M265.283408,30.462816 L265.283408,31.4866827 L261.733822,31.4866827 L261.733822,12.9669821 L265.283408,12.9669821 L265.283408,19.8113261 C265.84387,19.1290213 267.100075,18.4802994 268.458549,18.4802994 C272.14342,18.4802994 274.215354,21.5019348 274.215354,25.154272 C274.215354,28.8074283 272.14342,31.7946618 268.458549,31.7946618 C267.100075,31.7946618 265.84387,31.1459398 265.283408,30.462816 Z M265.283408,23.0377348 L265.283408,27.2200254 C265.67396,28.1071035 266.608061,28.7050417 267.660537,28.7050417 C269.562561,28.7050417 270.700394,27.1684225 270.700394,25.137071 C270.700394,23.0893377 269.562561,21.5527185 267.660537,21.5527185 C266.641882,21.5527185 265.67396,22.1842395 265.283408,23.0377348 Z M251.274297,30.462816 L251.274297,36.1981076 L247.759336,36.1981076 L247.759336,18.7530575 L251.274297,18.7530575 L251.274297,19.8113261 C251.834758,19.1290213 253.090964,18.4802994 254.449438,18.4802994 C258.134309,18.4802994 260.223153,21.5527185 260.223153,25.154272 C260.223153,28.7386245 258.134309,31.7946618 254.449438,31.7946618 C253.090964,31.7946618 251.834758,31.1459398 251.274297,30.462816 Z M251.274297,23.0377348 L251.274297,27.2200254 C251.698669,28.1071035 252.632771,28.7050417 253.651425,28.7050417 C255.55345,28.7050417 256.691282,27.1684225 256.691282,25.137071 C256.691282,23.0893377 255.55345,21.5527185 253.651425,21.5527185 C252.598145,21.5527185 251.698669,22.1842395 251.274297,23.0377348 Z M233.834777,25.137071 C233.834777,21.2111566 236.364905,18.4630984 240.049775,18.4630984 C243.734646,18.4630984 246.247863,21.1939557 246.247863,25.137071 C246.247863,29.0457845 243.734646,31.7774608 240.049775,31.7774608 C236.364905,31.7774608 233.834777,29.0457845 233.834777,25.137071 Z M237.332827,25.137071 C237.332827,27.2364073 238.30075,28.7902274 240.049775,28.7902274 C241.7988,28.7902274 242.766723,27.2536082 242.766723,25.137071 C242.766723,23.0033329 241.7988,21.4675328 240.049775,21.4675328 C238.28384,21.4675328 237.332827,23.0033329 237.332827,25.137071 Z M228.859074,23.601271 L228.859074,31.4866827 L225.361024,31.4866827 L225.361024,18.7530575 L228.875985,18.7530575 L228.875985,19.9997176 C229.419535,19.0946194 230.4551,18.4630984 231.712111,18.4630984 C232.306393,18.4630984 232.849944,18.5826861 233.036764,18.6850727 L233.036764,22.2358424 C232.560855,21.9450643 231.932753,21.8090948 231.270829,21.8090948 C230.082265,21.8090948 229.114342,22.4406157 228.859074,23.601271 Z M208.974785,31.4703008 L208.974785,13.9908488 L215.122141,13.9908488 C220.386127,13.9908488 223.714267,17.4048298 223.714267,22.7305748 C223.714267,28.0563197 220.403037,31.4703008 215.122141,31.4703008 L208.974785,31.4703008 Z M212.574298,17.2000565 L212.574298,28.278294 L214.986052,28.278294 C218.297282,28.278294 220.113949,26.1445559 220.113949,22.7477757 C220.113949,19.3337947 218.297282,17.2000565 214.986052,17.2000565 L212.574298,17.2000565 Z M188.937495,24.7791272 L198.123904,19.0610366 L204.44117,24.1476063 L195.322403,30.1212541 L188.937495,24.7791272 Z M173.4,24.0788024 L179.733371,19.0610366 L188.937495,24.7791272 L182.552587,30.1212541 L173.4,24.0788024 Z M182.552587,8 L188.937495,13.3421268 L179.733371,19.0610366 L173.4,13.922864 L182.552587,8 Z M204.44117,13.9736478 L198.123904,19.0610366 L188.937495,13.3421268 L195.322403,8 L204.44117,13.9736478 Z M195.356224,31.2655275 L198.090083,29.4725321 L198.090083,31.4866827 L188.954406,37 L179.801818,31.4866827 L179.801818,29.4725321 L182.552587,31.2655275 L188.954406,25.9225816 L195.356224,31.2655275 Z" id="logo-dropbox" fill="#A0A0A0" fill-rule="nonzero"/>
                        <path d="M430.030836,15.2917426 C430.030836,16.4808784 429.115687,17.4386285 427.979779,17.4386285 C426.84387,17.4386285 425.928721,16.4808784 425.928721,15.2917426 C425.928721,14.1026069 426.81176,13.1440092 427.979779,13.1440092 C429.146995,13.1779119 430.030836,14.135662 430.030836,15.2917426 Z M421.574539,19.6185694 L421.574539,20.1474509 C421.574539,20.1474509 420.596775,18.8260948 418.51441,18.8260948 C415.075377,18.8260948 412.393349,21.5679723 412.393349,25.3667651 C412.393349,29.1325029 415.043267,31.9074355 418.51441,31.9074355 C420.628083,31.9074355 421.574539,30.5521767 421.574539,30.5521767 L421.574539,31.1141133 C421.574539,31.378554 421.763991,31.5768846 422.016059,31.5768846 L424.572053,31.5768846 L424.572053,19.1566457 L422.016059,19.1566457 C421.763991,19.1566457 421.574539,19.3880313 421.574539,19.6185694 Z M421.574539,27.5797611 C421.101713,28.3061256 420.154453,28.9341723 419.019348,28.9341723 C416.999598,28.9341723 415.453478,27.6128162 415.453478,25.3667651 C415.453478,23.1198664 416.999598,21.7993579 419.019348,21.7993579 C420.123145,21.7993579 421.13302,22.4596122 421.574539,23.1529215 L421.574539,27.5797611 Z M426.464966,19.1566457 L429.494591,19.1566457 L429.494591,31.5768846 L426.464966,31.5768846 L426.464966,19.1566457 Z M471.710246,18.8260948 C469.627881,18.8260948 468.649314,20.1474509 468.649314,20.1474509 L468.649314,13.1779119 L465.620493,13.1779119 L465.620493,31.5768846 L468.176487,31.5768846 C468.428555,31.5768846 468.618007,31.3454989 468.618007,31.1141133 L468.618007,30.5521767 C468.618007,30.5521767 469.596574,31.9074355 471.678939,31.9074355 C475.117972,31.9074355 477.8,29.1325029 477.8,25.3667651 C477.8,21.6010274 475.117972,18.8260948 471.710246,18.8260948 Z M471.205309,28.9011172 C470.038093,28.9011172 469.122944,28.2730705 468.649314,27.546706 L468.649314,23.1198664 C469.122944,22.4596122 470.132819,21.7663028 471.205309,21.7663028 C473.225059,21.7663028 474.771178,23.0876589 474.771178,25.33371 C474.771178,27.5797611 473.225059,28.9011172 471.205309,28.9011172 Z M464.043065,24.2106845 L464.043065,31.6099396 L461.014244,31.6099396 L461.014244,24.5734429 C461.014244,22.5257224 460.383273,21.7001926 458.679008,21.7001926 C457.764662,21.7001926 456.818206,22.1951714 456.218543,22.9223835 L456.218543,31.5768846 L453.189721,31.5768846 L453.189721,19.1566457 L455.587571,19.1566457 C455.839639,19.1566457 456.029091,19.3880313 456.029091,19.6185694 L456.029091,20.1474509 C456.912932,19.1897008 458.080148,18.8260948 459.247364,18.8260948 C460.572724,18.8260948 461.676522,19.2227559 462.560363,20.0152305 C463.632854,20.9399255 464.043065,22.1290613 464.043065,24.2106845 Z M445.838025,18.8260948 C443.75566,18.8260948 442.777093,20.1474509 442.777093,20.1474509 L442.777093,13.1779119 L439.748272,13.1779119 L439.748272,31.5768846 L442.304266,31.5768846 C442.556334,31.5768846 442.745785,31.3454989 442.745785,31.1141133 L442.745785,30.5521767 C442.745785,30.5521767 443.724353,31.9074355 445.806718,31.9074355 C449.245751,31.9074355 451.927779,29.1325029 451.927779,25.3667651 C451.959087,21.6010274 449.277058,18.8260948 445.838025,18.8260948 Z M445.333088,28.9011172 C444.165872,28.9011172 443.250723,28.2730705 442.777093,27.546706 L442.777093,23.1198664 C443.250723,22.4596122 444.260598,21.7663028 445.333088,21.7663028 C447.352035,21.7663028 448.898155,23.0876589 448.898155,25.33371 C448.898155,27.5797611 447.352035,28.9011172 445.333088,28.9011172 Z M437.129662,18.8260948 C438.04481,18.8260948 438.51844,18.9913702 438.51844,18.9913702 L438.51844,21.9315783 C438.51844,21.9315783 435.993753,21.0390908 434.416325,22.9223835 L434.416325,31.6099396 L431.387504,31.6099396 L431.387504,19.1566457 L433.942696,19.1566457 C434.195566,19.1566457 434.385018,19.3880313 434.385018,19.6185694 L434.385018,20.1474509 C434.952571,19.453294 436.183205,18.8260948 437.129662,18.8260948 Z M405.672624,30.453859 C405.515283,30.0571979 405.357139,29.6274817 405.198994,29.2647233 C404.946927,28.6697316 404.69486,28.107795 404.473297,27.5797611 L404.44199,27.546706 C402.264899,22.5918325 399.930467,17.5708489 397.469198,12.6159753 L397.374472,12.4176448 C397.122405,11.9218184 396.869534,11.3937845 396.617467,10.864903 C396.301982,10.270759 395.986496,9.6427122 395.481559,9.0485681 C394.471684,7.727212 393.02029,7 391.47417,7 C389.896742,7 388.476656,7.727212 387.435474,8.9824579 C386.962647,9.576602 386.615051,10.2046488 386.299565,10.7987929 C386.047498,11.3276743 385.794628,11.8565558 385.542561,12.3515346 L385.447835,12.5498652 C383.018676,17.5047387 380.652134,22.5257224 378.475043,27.4805959 L378.443735,27.546706 C378.222975,28.0755875 377.970105,28.6366765 377.718038,29.2316682 C377.559894,29.5944266 377.402552,29.9910877 377.244408,30.4208039 C376.834197,31.6429947 376.708163,32.7990754 376.865505,33.9882111 C377.213101,36.4656479 378.790528,38.5464235 380.967619,39.4719661 C381.788042,39.8347245 382.639773,40 383.522811,40 C383.775681,40 384.091167,39.9669449 384.344037,39.9338898 C385.384416,39.8016694 386.457709,39.438911 387.498892,38.8108643 C388.792142,38.0505971 390.022776,36.9614743 391.411555,35.3756774 C392.79953,36.9614743 394.061472,38.0505971 395.323415,38.8108643 C396.364597,39.438911 397.43789,39.8016694 398.479073,39.9338898 C398.73114,39.9669449 399.046625,40 399.298693,40 C400.182534,40 401.066375,39.8347245 401.854687,39.4719661 C404.063086,38.5464235 405.609206,36.4325928 405.956802,33.9882111 C406.208869,32.8321305 406.082836,31.6760498 405.672624,30.453859 Z M391.442862,32.1710286 C389.738598,29.9249775 388.6348,27.8111468 388.255897,26.0270194 C388.098555,25.2675998 388.066445,24.606498 388.161171,24.0123539 C388.224589,23.4834725 388.414041,23.0215487 388.666108,22.6248876 C389.265771,21.7332477 390.274843,21.1713112 391.442862,21.1713112 C392.610079,21.1713112 393.651261,21.7001926 394.218814,22.6248876 C394.471684,23.0215487 394.661136,23.4834725 394.724554,24.0123539 C394.818477,24.606498 394.787169,25.3006549 394.629828,26.0270194 C394.250924,27.7780917 393.146324,29.8919224 391.442862,32.1710286 Z M404.031778,33.7237704 C403.811019,35.4417876 402.706418,36.9275716 401.161101,37.5886734 C400.403293,37.9192243 399.583673,38.0183896 398.762448,37.9192243 C397.974135,37.8200591 397.18502,37.5556183 396.364597,37.0606395 C395.229491,36.3995377 394.09278,35.3756774 392.768223,33.8559908 C394.850588,31.1802234 396.11253,28.7358418 396.586159,26.5559009 C396.806919,25.5320406 396.838227,24.606498 396.743501,23.7479132 C396.617467,22.9223835 396.333289,22.1621163 395.89177,21.5018621 C394.913203,20.0152305 393.27316,19.1566457 391.442862,19.1566457 C389.613367,19.1566457 387.972522,20.0482856 386.993955,21.5018621 C386.552435,22.1621163 386.268258,22.9223835 386.142224,23.7479132 C386.01619,24.606498 386.047498,25.5650957 386.299565,26.5559009 C386.773195,28.7358418 388.067248,31.2132785 390.117502,33.8890458 C388.824252,35.4087325 387.656233,36.4325928 386.521128,37.0928471 C385.700705,37.5886734 384.91159,37.8531142 384.123277,37.9522794 C383.270744,38.0505971 382.450321,37.9192243 381.724624,37.6217285 C380.178504,36.9614743 379.074706,35.4748427 378.853946,33.7568255 C378.75922,32.9312957 378.821836,32.1049185 379.138124,31.1802234 C379.23285,30.8496725 379.390192,30.5199692 379.547533,30.1233081 C379.769095,29.5952742 380.021163,29.0333376 380.27323,28.4714011 L380.30534,28.4052909 C382.482431,23.4834725 384.816864,18.4624888 387.246022,13.5737254 L387.341551,13.3753949 C387.593618,12.8804161 387.845685,12.3515346 388.098555,11.8565558 C388.350623,11.3276743 388.6348,10.831848 388.981594,10.4029793 C389.644675,9.6096571 390.527714,9.1807885 391.506281,9.1807885 C392.484045,9.1807885 393.367886,9.6096571 394.030165,10.4029793 C394.376958,10.831848 394.661136,11.3276743 394.914006,11.8565558 C395.166073,12.3515346 395.418141,12.8804161 395.671011,13.3753949 L395.765737,13.5737254 C398.163587,18.4955439 400.498019,23.5165275 402.67511,28.438346 L402.67511,28.4714011 C402.927178,29.0002825 403.14874,29.5952742 403.400807,30.1233081 C403.558951,30.5199692 403.716293,30.8496725 403.811019,31.1802234 C404.063086,32.0388083 404.158615,32.8651856 404.031778,33.7237704 Z" id="logo-airbnb" fill="#A0A0A0" fill-rule="nonzero"/>
                        <path d="M832.681364,23.681364 C832.679559,28.121511 832.681364,32.559853 832.679559,37 L846,37 L846,23.681364 C841.559853,23.681364 837.119706,23.6795591 832.681364,23.681364 Z M818,23.6795591 L818,37 L831.320441,37 L831.320441,23.681364 C826.880294,23.6795591 822.440147,23.681364 818,23.6795591 Z M930.969252,24.0279121 C930.823052,23.305937 930.503578,22.5911816 929.927802,22.1110681 C929.301489,21.5605621 928.433314,21.3746535 927.619287,21.4306066 C926.821505,21.4739251 926.032747,21.8186682 925.516535,22.4395668 C924.951589,23.1037839 924.709727,23.9809837 924.642945,24.8365242 C924.576162,25.7209437 924.642945,26.6342422 924.985883,27.4609038 C925.269258,28.1539999 925.808934,28.7550442 926.503835,29.049249 C927.150003,29.3272094 927.875588,29.3759428 928.565074,29.2748662 C929.207632,29.1792045 929.830336,28.8723651 930.249081,28.3687875 C930.664217,27.8652098 930.882615,27.2352865 930.994521,26.5999484 C931.133501,25.7498227 931.133501,24.8744279 930.969252,24.0279121 Z M934.039451,25.39425 C934.041256,26.8490298 933.647779,28.3417134 932.738091,29.4950687 C931.88255,30.6123251 930.57397,31.3379101 929.194998,31.5653323 C927.846709,31.7837298 926.420808,31.7277767 925.137498,31.2223941 C923.837942,30.7115967 922.75859,29.6665377 922.211693,28.381422 C921.641333,27.0728421 921.58177,25.598208 921.758654,24.2011861 C921.944563,22.8023593 922.578096,21.4342165 923.657449,20.5028686 C924.543673,19.7267453 925.680784,19.2863405 926.841359,19.1365307 C928.279894,18.9596467 929.806872,19.0553085 931.117256,19.7195256 C932.261587,20.2898859 933.147812,21.3241153 933.591826,22.5189841 C933.938374,23.4322826 934.059305,24.4195836 934.039451,25.39425 Z M908.145813,24.755302 C908.073616,23.8492232 907.81551,22.899826 907.149488,22.2446335 C906.526784,21.6147102 905.604461,21.3710436 904.739896,21.4288017 C904.052214,21.4649004 903.355508,21.6977374 902.844711,22.1760459 C902.140785,22.8149939 901.819506,23.7643912 901.732869,24.6885193 C901.635403,25.7028943 901.705795,26.7750274 902.169664,27.7027654 C902.530652,28.4211307 903.193064,28.9842713 903.976407,29.1918391 C904.743505,29.3903823 905.580997,29.3723329 906.324631,29.0871527 C906.958164,28.8398762 907.463547,28.3164443 907.737897,27.6973506 C908.153033,26.7786373 908.196351,25.7480178 908.145813,24.755302 Z M911.093277,25.9700251 C911.00664,27.222652 910.611358,28.4770837 909.82621,29.4734094 C909.024818,30.5311029 907.81551,31.2476633 906.519564,31.514794 C905.413137,31.7458261 904.254367,31.7458261 903.14794,31.5111842 C901.823116,31.2296139 900.595758,30.4607104 899.819635,29.3416489 C898.906337,28.0457036 898.648231,26.3977954 898.763747,24.8455489 C898.843164,23.5279443 899.252885,22.1995101 900.093986,21.1652807 C901.014504,20.0083156 902.429575,19.3242442 903.880745,19.1401405 C905.263328,18.9668665 906.721717,19.0444788 908.005028,19.6274737 C909.118675,20.1292464 910.021144,21.0587894 910.521111,22.1706311 C911.055373,23.3546703 911.183523,24.6849094 911.093277,25.9700251 Z M875.236382,19.3639528 C875.239992,23.3763295 875.236382,27.3887062 875.238187,31.399278 L878.099014,31.399278 C878.102624,27.3905112 878.091794,23.3799394 878.102624,19.3675627 C877.149616,19.3513182 876.191194,19.358538 875.236382,19.3639528 Z M895.904725,19.5444466 C895.184555,19.9541675 894.726101,20.6815574 894.417456,21.4306066 C894.419261,20.7411204 894.415651,20.0516341 894.419261,19.3639528 C893.471669,19.358538 892.524077,19.3549281 891.576484,19.3657578 C891.581899,23.3781345 891.576484,27.3905112 891.578289,31.399278 L894.417456,31.399278 C894.419261,29.4824341 894.417456,27.5619803 894.417456,25.6433314 C894.393992,24.8094501 894.46258,23.9466899 894.828982,23.1850061 C895.164701,22.4648359 895.812673,21.8385225 896.63031,21.7446658 C897.301747,21.6760781 898.009283,21.8349127 898.577838,22.201315 C898.579643,21.2392832 898.576033,20.2790563 898.579643,19.3188294 C897.711468,19.0282344 896.702508,19.0661381 895.904725,19.5444466 Z M915.831238,19.1654097 C914.704957,19.3657578 913.600335,19.9523625 912.963192,20.9270289 C912.409076,21.7645201 912.336879,22.8420679 912.566106,23.798685 C912.723135,24.4502675 913.118417,25.0260427 913.641849,25.4357636 C914.389093,26.0061239 915.280732,26.3255979 916.127248,26.7082447 C916.580288,26.9194224 917.060401,27.136015 917.387095,27.5312963 C917.735448,28.0402888 917.628956,28.875975 917.042352,29.16657 C916.428673,29.4607748 915.712112,29.457165 915.055115,29.3506736 C914.109328,29.1864243 913.215883,28.7839232 912.43976,28.2225875 C912.430736,29.1485206 912.43976,30.0780636 912.43615,31.0076065 C913.356669,31.4155225 914.363824,31.6140656 915.365564,31.6790434 C916.775221,31.7313866 918.307613,31.457036 919.372526,30.4607104 C920.487978,29.4752143 920.756914,27.7280346 920.12338,26.4068201 C919.785857,25.7010894 919.137884,25.2119513 918.471862,24.8383291 C917.627151,24.3473861 916.65068,24.116354 915.834848,23.5694579 C915.358345,23.2680333 915.221169,22.6020112 915.417908,22.0966286 C915.663379,21.5840263 916.255399,21.3566041 916.795075,21.3349449 C917.861793,21.2988461 918.937536,21.62193 919.818346,22.2283891 C919.818346,21.3457745 919.820151,20.4649649 919.818346,19.5823503 C918.556694,19.1040418 917.163282,18.9307677 915.831238,19.1654097 Z M884.363953,19.3495133 C883.087862,19.7177206 881.916457,20.4992587 881.167408,21.6074905 C880.273964,22.9034358 879.9581,24.52427 880.028492,26.0765165 C880.098885,27.5692 880.687295,29.0600786 881.772062,30.1069426 C882.770193,31.0761942 884.145555,31.5978212 885.524528,31.6718236 C886.872816,31.7368014 888.286083,31.5563076 889.462902,30.8559917 C889.452072,29.9860117 889.464707,29.1178367 889.455682,28.2460517 C888.695804,28.8019725 887.809579,29.2008638 886.871011,29.3073551 C885.919809,29.3795526 884.903629,29.1503255 884.176239,28.5059627 C883.477728,27.9103333 883.105911,27.0114742 883.012054,26.1126152 C882.887514,24.9628699 883.053568,23.7174628 883.775543,22.7770902 C884.335074,22.0190163 885.230323,21.533488 886.168891,21.448656 C887.34932,21.3006511 888.526139,21.7500806 889.455682,22.4576162 C889.464707,21.5389029 889.448463,20.6219945 889.464707,19.7050861 C889.206601,19.5534713 888.92864,19.4415651 888.64346,19.3603429 C887.253658,18.9686714 885.753755,18.952427 884.363953,19.3495133 Z M854.360472,14.600722 C854.358667,20.199639 854.358667,25.8039709 854.360472,31.4028879 C855.27377,31.401083 857.100367,31.4028879 857.100367,31.4028879 L857.116612,18.4470444 C857.116612,18.4470444 857.215883,18.6130987 857.261007,18.7015406 C858.968478,22.9341198 860.66512,27.1739186 862.38342,31.4028879 C863.072907,31.3902533 863.764198,31.428157 864.453684,31.4028879 C866.108812,27.1703088 867.805453,22.9395346 869.469606,18.7087604 C869.512925,18.6167086 869.621221,18.4416296 869.621221,18.4416296 L869.633855,31.4028879 C869.633855,31.4028879 871.572359,31.399278 872.54161,31.4028879 C872.539805,25.8039709 872.538,20.201444 872.54161,14.6025269 C871.198737,14.6061368 869.854058,14.5898923 868.511184,14.6115516 C866.847032,18.7538838 865.14317,22.8817766 863.468188,27.018694 C863.116225,26.1974473 859.852898,17.9127828 858.547928,14.600722 L854.360472,14.600722 Z M876.436666,14.2433443 C875.637079,14.3353961 874.954812,15.0627861 874.976471,15.8786179 C874.942178,16.6529362 875.564881,17.3478373 876.31393,17.4832076 C877.0341,17.6402372 877.860762,17.3352027 878.230774,16.6800103 C878.564688,16.0988203 878.481661,15.3064527 878.030426,14.8082898 C877.645974,14.3552504 877.016051,14.1567073 876.436666,14.2433443 Z M938.113195,14.07729 C937.322633,14.5826726 936.746857,15.3948946 936.488751,16.2937536 C936.183717,17.2900793 936.338942,18.342358 936.290208,19.3639528 C935.622381,19.358538 934.958164,19.3531232 934.293947,19.3675627 C934.301167,20.1382711 934.297557,20.9071746 934.295752,21.6760781 C934.963579,21.6887127 935.631406,21.6742732 936.299233,21.6869078 C936.293818,24.9231612 936.297428,28.1612196 936.297428,31.399278 L939.178109,31.399278 C939.178109,28.1612196 939.178109,24.9213563 939.179914,21.6832979 C940.584155,21.6814929 941.990202,21.6814929 943.396248,21.6832979 C943.399858,23.7463418 943.390833,25.8111906 943.398053,27.8742345 C943.412493,28.8362664 943.574937,29.8650809 944.21208,30.6249597 C944.764391,31.2963966 945.637981,31.603236 946.484497,31.6664088 C947.374331,31.7277767 948.294849,31.6194804 949.117901,31.2621028 L949.117901,28.9012441 C948.486173,29.3217946 947.614388,29.4914588 946.926707,29.1052021 C946.515181,28.8795849 946.356346,28.3940566 946.304003,27.9572617 C946.215561,27.2136273 946.25527,21.6869078 946.25527,21.6869078 C946.25527,21.6869078 948.163089,21.6598337 949.117901,21.6977374 L949.117901,19.358538 C948.164894,19.3621479 947.215497,19.3531232 946.267904,19.3657578 C946.24444,18.1636692 946.264294,16.9615806 946.257075,15.759492 C945.304068,16.0482821 944.360085,16.3497067 943.407078,16.6240572 C943.381809,17.5355508 943.405273,18.4488494 943.394443,19.358538 C941.990202,19.358538 940.584155,19.3603429 939.179914,19.3567331 C939.197963,18.6401728 939.13118,17.9163927 939.232257,17.2016373 C939.318894,16.6384967 939.645588,16.0753562 940.192484,15.8569587 C940.88558,15.5735834 941.659898,15.761297 942.316896,16.051892 C942.313286,15.2288403 942.324115,14.4057887 942.311481,13.5827371 C940.928898,13.2018952 939.342358,13.2758976 938.113195,14.07729 Z M832.679559,9 C832.679559,13.440147 832.679559,17.8802939 832.681364,22.3204409 L845.998195,22.3204409 C846,17.8802939 846,13.440147 846,9 L832.679559,9 Z M818,9 L831.320441,9 C831.318636,13.440147 831.320441,17.8802939 831.318636,22.3204409 L818,22.3204409 L818,9 Z" id="logo-windows" fill="#A0A0A0"/>
                        <g id="logo-ge" transform="translate(553.000000, 0.000000)">
                            <path d="M13.13048,26.4511742 C12.41668,27.206271 11.68998,28.1444645 11.6025467,29.2600774 C11.5552467,29.8405935 11.68998,30.3160774 11.9881133,30.6113032 C12.6560467,31.2784 13.89588,30.9618839 14.6326133,30.5289806 C16.39848,29.4928516 17.20688,26.7421419 17.59388,24.790529 C17.65408,24.4924645 17.82608,23.5443355 17.8031467,23.2760774 C16.9001467,23.7174968 16.4099467,23.9644645 15.56428,24.5123355 C14.7745133,25.0233032 13.7740467,25.7670452 13.13048,26.4511742" id="Fill-1" fill="#A0A0A0"/>
                            <path d="M17.3704233,14.9494323 C17.6900567,14.5250452 17.9681233,14.1148516 18.23759,13.6010452 C19.13629,11.8836258 18.13869,11.5401419 17.6026233,11.8453032 C16.5978567,12.4187226 15.76509,14.2156258 15.4139233,15.1964 C15.2132567,15.7556258 15.0742233,16.3687871 15.03839,17.0273677 C15.6260567,16.9251742 16.94759,15.5129161 17.3704233,14.9494323" id="Fill-3" fill="#A0A0A0"/>
                            <path d="M28.15812,14.3257677 C28.40752,14.0021548 29.6129533,12.5132516 29.0424867,11.9398323 C28.6583533,11.5523484 28.04202,11.9568645 27.81412,12.1825419 C27.5933867,12.4025419 27.2092533,12.9660258 27.0630533,13.2413806 C26.61012,14.1043484 26.33922,14.9375097 26.3277533,16.1212516 C26.70472,15.9409935 27.96462,14.5784129 28.15812,14.3257677" id="Fill-5" fill="#A0A0A0"/>
                            <path d="M33.0530967,29.3301935 C32.4711633,30.7296774 31.2040967,31.9474839 29.71773,32.4698065 C27.8586967,33.124129 25.8921633,32.7905806 24.4731633,31.8978065 C21.5104633,30.039871 20.78233,25.8527742 22.4320967,22.7060645 C22.8104967,21.9864516 23.3565967,21.3576774 23.8496633,20.8935484 C24.34273,20.4251613 25.1883967,19.8446452 25.7473967,19.5536774 C25.6871967,19.4316129 25.2571967,18.8965161 25.1611633,18.8156129 C24.6465967,19.2045161 23.8367633,19.7396129 23.28063,20.1029677 C22.3747633,20.6948387 21.2796967,21.3562581 20.3150633,21.8984516 C19.7044633,22.2419355 19.7388633,22.1156129 19.66003,22.8210323 C19.55253,23.7861935 19.51813,24.7087742 19.36763,25.6654194 C19.0780967,27.512 18.5018967,29.0023226 17.60893,30.2314839 C16.82203,31.3187097 15.6366633,32.4769032 13.8105967,32.7565161 C11.7408633,33.0687742 10.2802967,32.0624516 9.81016333,30.5366452 C9.22823,28.6403871 10.2702633,26.9172903 11.1302633,25.8896774 C12.4990967,24.256 14.8755633,23.0424516 16.7732967,22.0389677 C17.11873,21.855871 17.4942633,21.684129 17.8081633,21.4882581 C18.0460967,21.3392258 18.0546967,21.3378065 18.11633,21.0042581 C18.1521633,20.8140645 18.1922967,20.5188387 18.1965967,20.3172903 C18.09053,20.3627097 17.99163,20.4350968 17.8740967,20.4932903 C17.0183967,20.9190968 16.1397633,21.2597419 15.1378633,20.9375484 C14.22483,20.6437419 13.5382633,19.7296774 13.30893,18.8723871 C12.53923,18.7673548 11.8798967,18.5317419 11.4441633,18.1300645 C11.0270633,17.7482581 10.6572633,17.2614194 10.4694967,16.5261935 C10.2831633,15.8051613 10.33763,14.9592258 10.57843,14.3063226 C10.8263967,13.6307097 11.12453,13.148129 12.0131967,13.1538065 C12.0805633,13.3014194 12.2324967,13.4703226 12.2281967,13.6704516 C12.2181633,14.1374194 11.5473633,15.7540645 12.3055967,16.7334194 C12.4603967,16.9307097 12.82733,17.2713548 13.2329633,17.2727742 C13.3934967,14.6909677 14.6648633,11.6705806 16.8678967,10.5535484 C17.7149967,10.1234839 18.85593,10.068129 19.59123,10.6245161 C20.3752633,11.2149677 20.2906967,12.3901935 20.0699633,13.2531613 C19.65143,14.8896774 18.5233967,16.3615484 17.3107967,17.3905806 C16.7890633,17.8334194 15.95343,18.4366452 15.1679633,18.6963871 C15.2123967,19.0143226 15.4488967,19.3095484 15.62663,19.4387097 C15.89323,19.6331613 16.2400967,19.6274839 16.6170633,19.5423226 C17.23053,19.4032258 17.77663,19.0015484 18.15073,18.6935484 C18.86883,18.1002581 18.67103,17.9086452 18.99783,17.147871 C19.25153,16.5630968 19.5238633,16.0294194 19.8893633,15.6646452 C20.95433,14.6114839 22.45933,15.0614194 21.2710967,17.1010323 C20.8582967,17.8092903 20.0799967,18.4792258 19.9925633,18.8283871 C19.8592633,19.3492903 19.8248633,19.8588387 19.81913,20.4010323 C20.1272967,20.3541935 22.0608633,19.1136774 22.43353,18.8809032 C23.06563,18.4877419 23.7034633,18.0803871 24.2896967,17.6332903 C24.5247633,17.4544516 24.6021633,17.4587097 24.5347967,16.8796129 C24.2380967,14.3517419 25.4420967,11.955871 26.77223,10.9495484 C27.1477633,10.6656774 27.6207633,10.3974194 28.1883633,10.2781935 C29.3450633,10.0326452 30.5232633,10.5265806 30.77983,11.7089032 C31.1682633,13.5029677 29.5657967,15.4134194 28.3646633,16.4410323 C28.1854967,16.5943226 28.00633,16.7618065 27.81283,16.9108387 L26.66473,17.8192258 C26.8037633,18.0434839 26.9155633,18.5076129 27.3340967,18.7716129 C27.58923,18.9348387 27.6479967,18.8624516 27.9704967,18.8028387 C28.1969633,18.756 28.43203,18.7134194 28.67283,18.6850323 C29.5256633,18.5885161 30.9360633,18.8667097 30.89163,19.6870968 C30.87013,20.12 30.4501633,20.3797419 30.0516967,20.4805161 C29.27053,20.6778065 28.5581633,20.5529032 27.79563,20.5003871 C27.2136967,20.4606452 26.50993,20.8566452 26.0827967,21.1660645 C24.7196967,22.1539355 23.9413967,23.5747097 23.77513,25.3403871 C23.6016967,27.1954839 24.1262967,28.9256774 25.4406633,30.1051613 C26.7363967,31.2676129 28.9623633,31.2818065 30.19503,30.127871 C30.48313,29.8581935 30.69383,29.6282581 30.9274633,29.2308387 C31.5896633,28.108129 31.6727967,26.4247742 30.9833633,25.3858065 C29.70913,23.4668387 26.9929633,24.9245161 28.1080967,26.6774194 C28.3445967,27.0492903 28.6957633,27.3629677 28.77603,27.6369032 C29.04263,28.5296774 27.8873633,28.9540645 26.9384967,28.2614194 C25.9322967,27.5233548 25.6441967,25.8896774 26.1902967,24.720129 C26.9456633,23.0992258 28.9021633,22.388129 30.5891967,22.8891613 C31.4391633,23.1432258 31.9809633,23.552 32.4897967,24.2290323 C33.4658967,25.5163871 33.78123,27.5829677 33.0530967,29.3301935 M29.5686633,5.70077419 C28.5036967,5.40696774 27.59353,5.16283871 26.3923967,5.03367742 C25.2901633,4.91729032 23.9026967,5.02516129 23.02693,5.43535484 C21.99493,5.91935484 21.4000967,6.7283871 20.6332633,6.89445161 C17.93573,7.47922581 17.3666967,2.40787097 24.4602633,3.21264516 C25.02643,3.27651613 25.5882967,3.35883871 26.12723,3.47522581 C26.5156633,3.55896774 27.32263,3.86554839 27.6737967,3.84283871 C27.46023,3.65264516 27.4028967,3.61432258 27.0660633,3.5163871 C25.0321633,2.91741935 23.34513,2.69032258 21.1535633,2.70309677 C17.97013,2.72296774 14.6820633,3.6483871 12.0891633,5.14722581 C11.7035967,5.37148387 11.2764633,5.6283871 10.9252967,5.88954839 C10.13553,6.48141935 9.54069667,6.92425806 8.85269667,7.64103226 C8.54596333,7.95896774 8.23349667,8.28967742 7.94683,8.66012903 C7.29466333,9.49896774 6.95639667,9.98296774 6.43179667,10.9651613 C5.65349667,12.42 4.82216333,14.8414194 4.66306333,16.8256774 C4.56416333,18.071871 4.59713,19.1335484 5.04146333,20.1682581 C5.49153,21.2129032 6.22539667,21.6940645 6.50776333,22.5215484 C7.16136333,24.4362581 3.98223,25.6909677 2.98893,22.3100645 C2.45143,20.4762581 2.80116333,18.2861935 3.23976333,16.4310968 C3.29136333,16.2196129 3.41319667,15.8463226 3.42896333,15.6603871 C3.20536333,15.7654194 3.12939667,15.9442581 3.06489667,16.2352258 C3.00613,16.5020645 2.93303,16.7334194 2.87139667,16.9889032 C1.70323,21.6969032 2.29519667,27.028 4.76483,31.12 C5.69363,32.6557419 6.90623,34.1091613 8.32666333,35.2063226 C9.02039667,35.7414194 9.78006333,36.2750968 10.6715967,36.7122581 C12.3270967,37.5227097 14.4326633,38.2451613 16.6012967,38.4552258 C17.86263,38.5787097 18.92903,38.4750968 19.9509967,38.047871 C20.8195967,37.6845161 21.5405633,36.7676129 22.2815967,36.5490323 C23.42683,36.2140645 24.4129633,37.1636129 24.1764633,38.311871 C23.9886967,39.2174194 22.99253,39.7766452 22.0837967,40.0449032 C20.5873967,40.4849032 18.45603,40.2975484 16.88653,39.9725161 C16.6170633,39.9171613 15.5248633,39.5750968 15.3155967,39.6673548 C15.58363,40.0576774 17.61753,40.3912258 18.3040967,40.5061935 C19.4206633,40.6864516 20.7235633,40.7673548 21.8845633,40.731871 C24.2122967,40.6609032 26.4511633,40.2663226 28.36323,39.5282581 C30.27673,38.7887742 31.90643,37.8378065 33.2078967,36.7136774 C34.4964633,35.6037419 35.68183,34.2170323 36.5962967,32.4329032 C37.78883,30.1023226 39.07023,25.9194839 37.9120967,23.2312258 C37.5064633,22.2916129 36.6464633,21.6756129 36.4500967,20.8467097 C36.30533,20.232129 36.49453,19.7452903 36.8155967,19.4273548 C37.1237633,19.1250323 37.67703,18.888 38.26613,19.0710968 C39.1834633,19.3578065 39.7094967,20.1824516 39.9932967,21.1689032 C40.4433633,22.7273548 40.2684967,24.671871 39.9201967,26.2842581 C39.8155633,26.7710968 39.68943,27.360129 39.54323,27.8114839 C39.80123,27.8285161 39.8556967,27.4580645 39.9158967,27.2508387 C40.5178967,25.1927742 40.7142633,23.5661935 40.6927633,21.3534194 C40.6712633,19.1221935 40.14093,16.7930323 39.4557967,14.9634839 C37.7228967,10.3406452 34.10803,6.95264516 29.5686633,5.70077419" id="Fill-7" fill="#A0A0A0"/>
                            <path d="M38.6813667,32.7627613 C38.2241333,33.4426323 37.5762667,34.3354065 37.0330333,34.9386323 L36.5844,35.4410839 C36.3794333,35.6781161 35.4406,36.5978581 35.131,36.8618581 C34.6809333,37.2507613 34.2222667,37.6283097 33.7134333,38.0044387 C32.8864,38.6176 32.2657667,38.9923097 31.3756667,39.4961806 C30.0756333,40.2299871 28.3556333,40.9212129 26.8262667,41.3200516 C25.4287667,41.6848258 23.9381,41.937471 22.3815,41.9899871 C19.1679667,42.0992774 16.2411,41.5499871 13.6869,40.4840516 C11.9353667,39.7530839 10.2655333,38.8120516 8.8322,37.6765677 C8.22303333,37.1968258 7.35586667,36.4545032 6.81263333,35.8683097 C6.751,35.8044387 6.7209,35.781729 6.65066667,35.7178581 L6.19773333,35.2182452 C5.98416667,34.9954065 5.79926667,34.769729 5.60003333,34.5256 C2.88673333,31.2412129 1.17963333,27.0328258 1.0191,22.5930839 C0.905866667,19.4818581 1.48206667,16.4529548 2.53843333,13.9790194 C3.1261,12.6036645 3.53316667,11.9025032 4.31003333,10.6648258 C4.62966667,10.1538581 5.0224,9.62443871 5.38073333,9.17876129 C6.06586667,8.31863226 6.70656667,7.62456774 7.53073333,6.87089032 L8.55986667,5.97669677 C11.8995333,3.25437419 16.0117667,1.67037419 20.6213667,1.4376 C23.7030333,1.28289032 26.8735667,1.92585806 29.2959,2.95205161 C30.5314333,3.47579355 31.5906667,4.03643871 32.6484667,4.70211613 C32.9193667,4.87243871 33.153,5.03992258 33.4167333,5.22585806 C34.2609667,5.81772903 34.7784,6.27901935 35.5051,6.93901935 C36.3436,7.69695484 37.1778,8.62947097 37.9274333,9.63295484 C39.8653,12.2218581 41.2269667,15.2663742 41.7315,18.5479226 C41.8447333,19.3030194 41.9092333,20.0623742 41.9608333,20.8359226 C42.1586333,23.8023742 41.4333667,27.1179871 40.4443667,29.4428903 C39.9369667,30.6351484 39.3521667,31.7663742 38.6813667,32.7627613 M21.5,0.418503226 C9.62626667,0.418503226 0,9.95089032 0,21.7088258 C0,33.4681806 9.62626667,42.9991484 21.5,42.9991484 C33.3723,42.9991484 42.9985667,33.4681806 42.9985667,21.7088258 C42.9985667,9.95089032 33.3723,0.418503226 21.5,0.418503226" id="Fill-9" fill="#9F9E9F"/>
                        </g>
                    </g>
                </g>
            </g>
        </g>
    </g>
</svg>